<svg xmlns="http://www.w3.org/2000/svg" viewBox="0 0 100 100" width="100" height="100">
  <rect width="100" height="100" fill="#0D0D0D"/>
  <defs>
    <filter id="glow" x="-50%" y="-50%" width="200%" height="200%">
      <feGaussianBlur stdDeviation="2" result="blur"/>
      <feMerge>
        <feMergeNode in="blur"/>
        <feMergeNode in="SourceGraphic"/>
      </feMerge>
    </filter>
  </defs>
  <polygon points="50,8 85,28 85,72 50,92 15,72 15,28"
    fill="none" stroke="#4D9EFF" stroke-width="3"
    stroke-linejoin="round"
    filter="url(#glow)"/>
  <g fill="none" stroke="#4D9EFF" stroke-width="2.2" stroke-linecap="round" filter="url(#glow)">
    <circle cx="24" cy="32" r="3.5" fill="#4D9EFF"/>
    <circle cx="24" cy="41" r="3.5" fill="#4D9EFF"/>
    <circle cx="24" cy="50" r="3.5" fill="#4D9EFF"/>
    <circle cx="24" cy="59" r="3.5" fill="#4D9EFF"/>
    <circle cx="24" cy="68" r="3.5" fill="#4D9EFF"/>
    <path d="M27.5,32 Q55,32 68,50"/>
    <path d="M27.5,41 Q55,41 68,50"/>
    <path d="M27.5,50 L68,50"/>
    <path d="M27.5,59 Q55,59 68,50"/>
    <path d="M27.5,68 Q55,68 68,50"/>
    <circle cx="68" cy="50" r="4" fill="#4D9EFF"/>
  </g>
</svg>
